<?xml version="1.0" encoding="UTF-8"?>
<svg id="_레이어_2" data-name="레이어 2" xmlns="http://www.w3.org/2000/svg" viewBox="0 0 69.76 59.85">
  <defs>
    <style>
      .cls-1 {
        fill: #04afff;
      }
    </style>
  </defs>
  <g id="_레이어_1-2" data-name="레이어 1">
    <path class="cls-1" d="M8.12,38.21C3.66,38.23.02,34.59,0,30.08c-.02-4.51,3.59-8.13,8.01-8.15,4.42-.02,8.06,3.63,8.07,8.09.02,4.46-3.5,8.18-7.96,8.19M49.68,0c-5.97.02-6.21,5.11-15.31,5.15C25.17,5.18,24.4.1,18.97.12c-4.46.02-8.03,3.69-8.01,8.15.02,4.46,3.65,8.1,8.07,8.09,6.01-.02,6.25-5.11,15.35-5.15,9.19-.04,9.96,5.05,15.4,5.02,4.46-.02,8.03-3.69,8.01-8.15C57.77,3.63,54.14-.02,49.67,0M49.85,43.49c-6.01.02-6.25,5.11-15.35,5.15-9.19.04-9.96-5.05-15.4-5.03-4.46.02-8.03,3.69-8.01,8.15.02,4.46,3.65,8.1,8.07,8.09,6.01-.02,6.25-5.11,15.35-5.15,9.19-.04,9.96,5.05,15.4,5.03,4.46-.02,8.03-3.69,8.01-8.15-.02-4.46-3.61-8.1-8.07-8.09M61.69,21.72c-6.05.02-5.81,5.38-13.41,5.41-7.03.03-7.13-5.28-13.89-5.25-4.2.02-7.63,3.91-7.61,8.15.02,4.24,3.52,8.1,8.07,8.09,6.05-.02,5.81-5.38,13.41-5.4,7.03-.03,7.13,5.28,13.89,5.26,4.2-.02,7.63-3.91,7.61-8.15.03-4.24-3.48-8.1-8.07-8.09"/>
  </g>
</svg>