<?xml version="1.0" encoding="UTF-8"?>
<svg id="_레이어_2" data-name="레이어 2" xmlns="http://www.w3.org/2000/svg" viewBox="0 0 155.74 150">
  <defs>
    <style>
      .cls-1 {
        fill: #fca326;
      }

      .cls-2 {
        fill: #fc6d26;
      }

      .cls-3 {
        fill: #e24329;
      }
    </style>
  </defs>
  <g id="Layer_1" data-name="Layer 1">
    <path class="cls-3" d="M153.13,59.37l-.21-.56L131.72,3.51c-.42-1.08-1.19-2-2.18-2.63-.99-.63-2.15-.93-3.32-.87-1.17.06-2.29.49-3.21,1.22-.91.74-1.57,1.73-1.87,2.85l-14.31,43.81h-57.91L34.6,4.08c-.31-1.12-.97-2.12-1.87-2.85C31.81.5,30.69.07,29.52,0c-1.18-.06-2.33.24-3.32.87-.99.63-1.75,1.54-2.18,2.63L2.82,58.82l-.21.55c-6.28,16.39-.93,34.91,13.06,45.49.03.02.05.04.08.06l.19.14,32.29,24.17,15.97,12.09,9.72,7.35c2.34,1.77,5.58,1.77,7.92,0l9.72-7.35,15.97-12.09,32.48-24.32s.06-.04.09-.07c13.98-10.58,19.33-29.1,13.05-45.48h0Z"/>
    <path class="cls-2" d="M153.13,59.37l-.21-.56c-10.52,2.16-20.2,6.61-28.5,12.82-.13.1-25.2,19.06-46.55,35.2,15.85,11.99,29.65,22.4,29.65,22.4l32.48-24.32s.06-.04.09-.07c13.98-10.58,19.33-29.1,13.05-45.48h0Z"/>
    <path class="cls-1" d="M48.22,129.23l15.97,12.09,9.72,7.35c2.34,1.77,5.58,1.77,7.92,0l9.72-7.35,15.97-12.09s-13.8-10.42-29.65-22.4c-15.85,11.99-29.65,22.4-29.65,22.4Z"/>
    <path class="cls-2" d="M31.31,71.63c-8.29-6.2-17.97-10.66-28.5-12.81l-.21.55c-6.28,16.39-.93,34.91,13.06,45.49.03.02.05.04.08.06l.19.14,32.29,24.17s13.8-10.42,29.65-22.4c-21.35-16.14-46.42-35.1-46.55-35.2Z"/>
  </g>
</svg>