<svg xmlns="http://www.w3.org/2000/svg" viewBox="0 0 100 100"><path fill="#f8f674" d="M0 0h100v100H0z"/><path d="M0 0v100h100V0zm92.593 92.593H7.407V7.407h85.186zM61.11 71.91h9.26v7.407H58.73l-5.027-5.026V62.65h7.407zm16.667 0H70.37v-9.26h-9.259v-7.407h11.64l5.027 5.026zm-31.481-10.8H38.89v-7.407h7.407zm-24.074-7.407h7.408V70.37h16.666v7.407H27.25l-5.027-5.026zm55.556-14.815v7.407H53.704V38.89h8.278v-9.26h-8.278v-7.407h10.659l5.026 5.027v11.64zM29.63 30.556h9.259l7.407 7.407v8.333H38.89v-8.333h-9.26v8.333h-7.407V22.222h7.408zm16.666 0H38.89v-8.334h7.407z"/></svg>