<svg xmlns="http://www.w3.org/2000/svg" xmlns:xlink="http://www.w3.org/1999/xlink" viewBox="0 0 95.58 50"><defs><linearGradient id="a" x1="1012.07" y1="-138.9" x2="983.53" y2="-89.46" gradientTransform="matrix(.5 0 0 -.5 -465.46 -48.62)" gradientUnits="userSpaceOnUse"><stop offset="0" stop-color="#bff9b4"/><stop offset="1" stop-color="#80ee64"/></linearGradient><linearGradient id="b" x1="935.41" y1="-188.34" x2="983.05" y2="-105.84" gradientTransform="matrix(.5 0 0 -.5 -465.46 -48.62)" gradientUnits="userSpaceOnUse"><stop offset="0" stop-color="#80ee64"/><stop offset=".18" stop-color="#7beb63"/><stop offset=".36" stop-color="#6fe562"/><stop offset=".55" stop-color="#5ada60"/><stop offset=".74" stop-color="#3dca5d"/><stop offset=".93" stop-color="#18b759"/><stop offset="1" stop-color="#09af58"/></linearGradient><linearGradient id="c" x1="1108.13" y1="-171.95" x2="1060.5" y2="-89.46" xlink:href="#a"/><linearGradient id="d" x1="1079.27" y1="-188.62" x2="1031.64" y2="-106.12" xlink:href="#b"/></defs><path d="m38.77 1.04 9.02 15.62-18.64 32.29c-.37.64-1.06 1.04-1.8 1.04H10.5c-.37 0-.73-.1-1.04-.28s-.58-.44-.76-.76L.28 34.38c-.37-.64-.37-1.44 0-2.08L18.32 1.04c.18-.32.45-.58.76-.76S19.75 0 20.12 0h16.84c.74 0 1.43.4 1.8 1.04ZM95.3 32.29 77.26 1.04c-.18-.32-.45-.58-.76-.76S75.83 0 75.46 0H58.62c-.74 0-1.43.4-1.8 1.04L47.8 16.66l18.64 32.29c.37.64 1.06 1.04 1.8 1.04h16.84c.37 0 .73-.1 1.04-.28s.58-.44.76-.76l8.42-14.58c.37-.64.37-1.44 0-2.08" style="fill:#62de61"/><path d="M28.55 16.67h19.24L38.77 1.04A2.09 2.09 0 0 0 36.97 0H20.13c-.37 0-.73.1-1.04.28z" style="fill:url(#a)"/><path d="M28.55 16.67 19.09.28c-.31.18-.58.44-.76.76L.28 32.29c-.37.65-.37 1.44 0 2.08L8.7 48.95c.18.32.45.58.76.76l19.08-33.04Z" style="fill:url(#b)"/><path d="M47.79 16.67H28.55L9.46 49.72c.31.18.67.28 1.04.28h16.84c.74 0 1.43-.4 1.8-1.04l18.64-32.29ZM95.3 34.38c.18-.32.28-.68.28-1.04H76.66L67.2 49.73c.31.18.67.28 1.04.28h16.84c.74 0 1.43-.4 1.8-1.04l8.42-14.58Z" style="fill:#09af58"/><path d="M58.62 0c-.37 0-.73.1-1.04.28l19.08 33.05h18.92c0-.36-.09-.72-.28-1.04L77.26 1.04A2.09 2.09 0 0 0 75.45 0H58.61Z" style="fill:url(#c)"/><path d="m67.2 49.72 9.46-16.39L57.57.28c-.31.18-.58.44-.76.76l-9.02 15.62 18.64 32.29c.18.32.45.58.76.76Z" style="fill:url(#d)"/></svg>