<svg viewBox="0 0 70 70" xmlns="http://www.w3.org/2000/svg"><path d="M35.7 17.526q2.807 0 5.297.953 2.514.951 4.395 2.636 1.88 1.684 2.856 3.907.22.488.22 1 0 1.002-.733 1.734a2.33 2.33 0 0 1-1.709.708q-.66 0-1.318-.415-.66-.44-.928-1.05-.927-2.1-3.1-3.345-2.15-1.245-4.98-1.245-1.392 0-2.955.342a12 12 0 0 0-2.905 1.05q-1.367.684-2.222 1.733-.855 1.05-.854 2.442 0 1.123.732 1.953.732.805 1.636 1.27 2.124 1.05 4.687 1.464 2.588.415 5.225.806 2.637.39 4.907 1.367 1.44.61 2.759 1.685a8.6 8.6 0 0 1 2.148 2.612q.83 1.538.83 3.613.001 2.685-1.294 4.712a11 11 0 0 1-3.393 3.37q-2.1 1.342-4.565 2.025-2.442.66-4.786.66-3.173 0-5.957-1.001-2.783-1.026-4.858-2.881a12.8 12.8 0 0 1-3.174-4.395 2.4 2.4 0 0 1-.22-.976q0-1.001.708-1.71.733-.731 1.734-.732.683 0 1.343.44.658.414.903 1.05 1.074 2.466 3.638 3.906 2.564 1.416 5.883 1.416 2.076 0 4.175-.61 2.1-.636 3.516-1.93 1.44-1.317 1.44-3.344 0-1.294-.879-2.124a6 6 0 0 0-1.88-1.294 19 19 0 0 0-4.956-1.367q-2.636-.39-5.249-.806a17 17 0 0 1-4.882-1.587q-1.929-.976-3.516-2.832-1.563-1.88-1.563-4.76 0-2.54 1.221-4.468 1.245-1.953 3.272-3.272a16 16 0 0 1 4.492-2.026 18 18 0 0 1 4.858-.684" fill="#90cdf4"/><circle cx="35" cy="35" r="32" stroke="#90cdf4" stroke-width="6" fill="transparent"/></svg>