<svg xmlns="http://www.w3.org/2000/svg" viewBox="0 0 165.56 165.22"><path d="M17.23 21.47c5.99 0 10.78-4.77 10.78-10.74S23.22 0 17.23 0 6.45 4.77 6.45 10.74s4.79 10.74 10.78 10.74ZM21.03 70C30.21 67.81 36 58.67 33.81 49.52c-2.2-9.15-11.38-14.91-20.57-12.72C4.06 38.98-1.73 48.13.47 57.27c2.2 9.35 11.38 14.91 20.57 12.72Zm0 85.29c9.18-2.19 14.97-11.33 12.78-20.48-2.2-9.14-11.38-14.91-20.57-12.72S-1.74 133.42.46 142.57s11.38 14.91 20.57 12.72m6.81-59.26c0-5.96-4.79-10.74-10.78-10.74S6.28 90.06 6.28 96.03s4.79 10.74 10.78 10.74S27.84 102 27.84 96.03m55.11-1.19c-9.38 0-17.17 7.56-17.17 17.1s7.59 17.1 17.17 17.1 17.17-7.56 17.17-17.1c-.2-9.54-7.79-17.1-17.17-17.1m0 48.91c-5.99 0-10.78 4.77-10.78 10.74s4.79 10.74 10.78 10.74 10.78-4.77 10.78-10.74c-.2-5.97-4.99-10.74-10.78-10.74m0-63.82c5.99 0 10.78-4.77 10.78-10.74s-4.79-10.74-10.78-10.74-10.78 4.77-10.78 10.74 4.79 10.74 10.78 10.74m1.58-42.74c5.79-.99 9.78-6.36 8.79-12.13-1-5.77-6.39-9.74-12.18-8.75s-9.78 6.36-8.79 12.13c1 5.77 6.39 9.54 12.18 8.75m76.09 28.23c6.59-6.56 6.59-17.5 0-24.06s-17.57-6.56-24.16 0-6.59 17.5 0 24.06c6.59 6.76 17.57 6.76 24.16 0m-11.99-43.95c5.99 0 10.78-4.77 10.78-10.74S154.62-.01 148.63-.01s-10.78 4.77-10.78 10.74 4.79 10.74 10.78 10.74m0 64.02c-5.99 0-10.78 4.77-10.78 10.74s4.79 10.74 10.78 10.74 10.78-4.77 10.78-10.74c-.2-5.97-4.99-10.74-10.78-10.74m0 42.56c-5.99 0-10.78 4.77-10.78 10.74s4.79 10.74 10.78 10.74 10.78-4.77 10.78-10.74c-.2-5.96-4.99-10.74-10.78-10.74" style="fill:#fcbc32"/></svg>